<svg width="18" height="18" viewBox="0 0 18 18" fill="none" xmlns="http://www.w3.org/2000/svg">
<path d="M17.7975 16.8163L14.0584 13.0851C15.378 11.5137 16.0402 9.49333 15.9068 7.44546C15.7733 5.39759 14.8546 3.48031 13.3422 2.09348C11.8298 0.706655 9.84045 -0.0426393 7.78911 0.00187568C5.73778 0.0463906 3.78282 0.881277 2.33196 2.33241C0.881108 3.78354 0.0463817 5.73888 0.00187532 7.79061C-0.0426311 9.84233 0.706519 11.832 2.09308 13.3447C3.47964 14.8575 5.39656 15.7764 7.44404 15.9098C9.49151 16.0433 11.5115 15.381 13.0826 14.0611L16.8131 17.8009C16.9451 17.9286 17.1216 18 17.3053 18C17.489 18 17.6655 17.9286 17.7975 17.8009C17.9272 17.6699 18 17.493 18 17.3086C18 17.1242 17.9272 16.9473 17.7975 16.8163ZM1.4162 7.98061C1.4162 6.68235 1.80111 5.41324 2.52225 4.33377C3.24338 3.2543 4.26837 2.41296 5.46758 1.91614C6.66679 1.41931 7.98636 1.28932 9.25944 1.5426C10.5325 1.79588 11.7019 2.42105 12.6197 3.33906C13.5376 4.25707 14.1626 5.42669 14.4159 6.70001C14.6691 7.97333 14.5391 9.29316 14.0424 10.4926C13.5457 11.692 12.7045 12.7172 11.6252 13.4385C10.546 14.1598 9.2771 14.5447 7.97908 14.5447C6.2392 14.5425 4.57123 13.8502 3.34095 12.6196C2.11066 11.3891 1.41848 9.72083 1.4162 7.98061Z" fill="white"/>
</svg>
